<svg xmlns="http://www.w3.org/2000/svg" width="860" height="200" viewBox="0 0 860 200">
    <g fill="none" fill-rule="evenodd">
        <path fill="#FFF" d="M282 100h-10V88h10a6 6 0 1 1 0 12m0-20h-18v40h8v-12h10c7.732 0 14-6.268 14-14s-6.268-14-14-14M582 100h-10V88h10a6 6 0 1 1 0 12m0-20h-18v40h8v-12h10c7.732 0 14-6.268 14-14s-6.268-14-14-14M642 100h-10V88h10a6 6 0 1 1 0 12m0-20h-18v40h8v-12h10c7.732 0 14-6.268 14-14s-6.268-14-14-14M228 80l-8 16-8-16h-10l14 24v16h8v-16l14-24zM109.42 107.42c-2.198 2.785-5.596 4.58-9.42 4.58-6.627 0-12-5.373-12-12 0-6.628 5.373-12 12-12 3.824 0 7.222 1.794 9.42 4.58l5.675-5.675C111.428 82.682 106.033 80 100 80c-11.045 0-20 8.954-20 20 0 11.045 8.955 20 20 20 6.033 0 11.428-2.683 15.095-6.906l-5.675-5.675z"/>
        <path fill="#FFF" d="M109.42 92.58C107.222 89.796 103.824 88 100 88c-6.627 0-12 5.372-12 12 0 6.627 5.373 12 12 12 3.824 0 7.222-1.794 9.42-4.58l5.675 5.674C111.428 117.319 106.033 120 100 120c-11.045 0-20-8.955-20-20 0-11.046 8.955-20 20-20 6.033 0 11.428 2.682 15.095 6.905l-5.675 5.675zM152 88h10a6 6 0 1 1 0 12h-10V88zm26 32l-9.663-13.528C172.881 104.158 176 99.448 176 94c0-7.732-6.268-14-14-14h-18v40h8v-12h7.429L168 120h10zM752 88h10a6 6 0 1 1 0 12h-10V88zm26 32l-9.663-13.528C772.881 104.158 776 99.448 776 94c0-7.732-6.268-14-14-14h-18v40h8v-12h7.429L768 120h10zM356 80h-32v8h12v32h8V88h12zM400 112c-6.627 0-12-5.373-12-12s5.373-12 12-12 12 5.373 12 12-5.373 12-12 12m0-32c-11.046 0-20 8.954-20 20s8.954 20 20 20 20-8.954 20-20-8.954-20-20-20"/>
        <path fill="#00B2C8" d="M520 101.992c-6.627 0-12-5.373-12-12s5.373-12 12-12 12 5.373 12 12-5.373 12-12 12m0-32c-11.046 0-20 8.954-20 20s8.954 20 20 20 20-8.954 20-20-8.954-20-20-20"/>
        <path fill="#FFF" d="M692 112v-8h20v-8h-20v-8h22v-8h-30v40h31v-8zM468 80v16h-16V80h-8v40h8v-16h16v16h8V80z"/>
    </g>
</svg>
